<?xml version="1.0" encoding="UTF-8"?>
<svg version="1.1" xmlns="http://www.w3.org/2000/svg" width="2816" height="1536">
<path d="M0 0 C929.28 0 1858.56 0 2816 0 C2816 506.88 2816 1013.76 2816 1536 C1886.72 1536 957.44 1536 0 1536 C0 1029.12 0 522.24 0 0 Z " fill="#FDFDFC" transform="translate(0,0)"/>
<path d="M0 0 C2.04399547 -0.00417536 4.08798863 -0.00965398 6.1319775 -0.01631981 C11.73583385 -0.03076616 17.33954303 -0.02653219 22.94340742 -0.019153 C28.99187243 -0.01442175 35.04030558 -0.0269307 41.08876038 -0.03717041 C52.24811516 -0.05337034 63.40742438 -0.05580391 74.5667847 -0.05086542 C84.87596973 -0.04630548 95.18513735 -0.04691089 105.49432182 -0.05270576 C106.8780091 -0.05346263 108.26169639 -0.05421861 109.64538367 -0.05497371 C111.73054073 -0.05611892 113.81569779 -0.0572688 115.90085484 -0.05843295 C135.28085923 -0.06913456 154.66085782 -0.07386653 174.04086399 -0.06596279 C175.13620705 -0.06551703 175.13620705 -0.06551703 176.25367824 -0.06506227 C182.18340369 -0.06261341 188.11312908 -0.06000178 194.04285445 -0.05737813 C217.17841307 -0.04727309 240.31389913 -0.05563736 263.44944763 -0.07887268 C289.45114073 -0.10494435 315.45279015 -0.11779375 341.4544968 -0.11068493 C344.22676431 -0.10996888 346.99903183 -0.10929449 349.77129936 -0.10864449 C350.79518088 -0.10838977 350.79518088 -0.10838977 351.83974687 -0.10812991 C362.14251547 -0.10582716 372.4452435 -0.11380262 382.74800301 -0.12693596 C394.46321665 -0.14184331 406.17835151 -0.1423207 417.89356894 -0.12486505 C423.87137863 -0.11633607 429.84900667 -0.11425202 435.82680702 -0.1295166 C441.29869878 -0.14331651 446.77025247 -0.1386609 452.24212443 -0.11927737 C454.22178313 -0.11550268 456.2014686 -0.11848139 458.18110353 -0.12888902 C460.87307837 -0.14203557 463.56388238 -0.13049662 466.25580692 -0.1128912 C467.40728102 -0.12736697 467.40728102 -0.12736697 468.58201721 -0.14213517 C476.98338181 -0.0294032 484.86448006 3.76764078 491.06590271 9.38768005 C497.48204482 16.55956968 502.19312105 24.69675698 502.18895054 34.45576096 C502.19094159 35.48436005 502.19293264 36.51295915 502.19498402 37.57272792 C502.19207118 38.7011244 502.18915834 39.82952089 502.18615723 40.99211121 C502.18701165 42.19200975 502.18786608 43.39190829 502.18874639 44.62816739 C502.19011014 47.95981298 502.18697942 51.29140001 502.18196833 54.62303853 C502.17765421 58.21536715 502.17911094 61.80769393 502.17987061 65.40002441 C502.18039523 71.62435587 502.17725484 77.84867685 502.17163277 84.07300568 C502.16350945 93.07236562 502.16090169 102.07172049 502.15964478 111.07108369 C502.15745557 125.67157311 502.15079903 140.27205695 502.14134216 154.87254333 C502.13216466 169.05646232 502.12508548 183.24037979 502.12083435 197.42430115 C502.12057163 198.29843996 502.1203089 199.17257877 502.12003822 200.07320663 C502.11873319 204.45845696 502.11746948 208.8437073 502.11622632 213.22895765 C502.10585779 249.6152024 502.08824302 286.00144079 502.06590271 322.38768005 C500.43962952 322.40169861 500.43962952 322.40169861 498.78050232 322.41600037 C494.73403274 322.45606077 490.68831069 322.52186291 486.64231873 322.59519958 C484.89567208 322.62331657 483.14890039 322.64457702 481.40208435 322.65867615 C478.88182486 322.68023525 476.36305413 322.72694839 473.84324646 322.77830505 C472.68344521 322.78014801 472.68344521 322.78014801 471.50021362 322.7820282 C465.94073136 322.93012273 462.49140412 323.91667156 458.06590271 327.38768005 C451.26139172 345.5330427 454.45341033 366.01229894 454.06590271 385.38768005 C303.58590271 385.38768005 153.10590271 385.38768005 -1.93409729 385.38768005 C-2.26409729 368.22768005 -2.59409729 351.06768005 -2.93409729 333.38768005 C-6.1423491 326.84244798 -6.1423491 326.84244798 -11.93409729 323.38768005 C-14.90811516 322.83305291 -17.81263934 322.78294163 -20.83253479 322.77830505 C-21.66749481 322.7617688 -22.50245483 322.74523254 -23.36271667 322.72819519 C-26.01158624 322.6798766 -28.65988241 322.65838081 -31.30909729 322.63768005 C-33.1125113 322.60950677 -34.91589879 322.57957744 -36.71925354 322.5478363 C-41.12415421 322.47412234 -45.52873959 322.42444948 -49.93409729 322.38768005 C-50.09445294 285.02778082 -50.21773261 247.66793358 -50.2915546 210.3077596 C-50.30030914 205.89323708 -50.30936944 201.47871524 -50.31861877 197.06419373 C-50.32045495 196.1853724 -50.32229112 195.30655108 -50.32418294 194.40109881 C-50.3546105 180.18665062 -50.40978494 165.97240137 -50.47416686 151.75807104 C-50.539716 137.16391053 -50.57852741 122.56985393 -50.59271675 107.97555226 C-50.60230341 98.975936 -50.63253896 89.97688214 -50.68951256 80.97743907 C-50.72662381 74.79926728 -50.73767342 68.62138461 -50.72860693 62.44310955 C-50.72414005 58.88272029 -50.7307997 55.32331103 -50.76853561 51.76309776 C-51.04455197 24.3574154 -51.04455197 24.3574154 -42.93409729 14.38768005 C-42.23918906 13.49394841 -41.54428083 12.60021677 -40.82831478 11.67940235 C-38.95731664 9.41577203 -37.2343523 7.90039838 -34.80909729 6.26268005 C-34.12589417 5.78572693 -33.44269104 5.3087738 -32.73878479 4.81736755 C-22.19141963 -0.55914449 -11.54696133 -0.0383138 0 0 Z " fill="#020202" transform="translate(1181.934097290039,245.61231994628906)"/>
<path d="M0 0 C25.74 0 51.48 0 78 0 C78 93.72 78 187.44 78 284 C112.65 284 147.3 284 183 284 C182.99476318 276.37140869 182.98952637 268.74281738 182.98413086 260.88305664 C182.9680967 236.50241674 182.95696434 212.12177699 182.94893467 187.74113322 C182.94768389 183.9570608 182.94638958 180.17298841 182.94506836 176.38891602 C182.94467489 175.2588571 182.94467489 175.2588571 182.94427348 174.10596871 C182.93991664 161.89137331 182.93202902 149.67678259 182.9228472 137.46218998 C182.91351105 124.93825801 182.90794447 112.4143285 182.90591151 99.8903932 C182.9045362 92.15621148 182.90018519 84.42204301 182.89208353 76.68786537 C182.88619586 70.76733277 182.88554094 64.84680705 182.88689232 58.92627144 C182.88661579 56.49011656 182.88460807 54.05396121 182.88079453 51.6178093 C182.87586417 48.30757028 182.87699927 44.99738923 182.87974548 41.68714905 C182.87537622 40.22073985 182.87537622 40.22073985 182.87091869 38.72470623 C182.87290974 37.8448995 182.87490079 36.96509277 182.87695217 36.05862522 C182.87657245 35.29348876 182.87619273 34.52835229 182.8758015 33.74002987 C183 32 183 32 184 31 C185.84761268 30.90351752 187.6989581 30.87812682 189.54908752 30.87974548 C190.75368622 30.87837082 191.95828491 30.87699615 193.1993866 30.87557983 C194.54641748 30.87911944 195.89344812 30.88275425 197.24047852 30.88647461 C198.64947508 30.88675648 200.05847179 30.88659875 201.46746826 30.8860321 C205.3040763 30.88574411 209.14065334 30.89164106 212.97725415 30.89860606 C216.98246941 30.90483937 220.9876853 30.90544338 224.99290466 30.90663147 C232.58252004 30.90974485 240.17212108 30.91795833 247.76173013 30.92798096 C256.40003924 30.93914188 265.03834901 30.94465249 273.67666352 30.94967639 C291.4511188 30.96014094 309.22555442 30.97848651 327 31 C327 20.77 327 10.54 327 0 C369.57 0 412.14 0 456 0 C456.33 17.16 456.66 34.32 457 52 C459.84274732 59.0677036 459.84274732 59.0677036 465 63 C467.97562135 63.44209595 470.91711576 63.48865359 473.921875 63.51171875 C475.21185394 63.53864555 475.21185394 63.53864555 476.52789307 63.56611633 C479.26854584 63.62020038 482.00902465 63.65410863 484.75 63.6875 C486.61070128 63.72067479 488.47137961 63.7551646 490.33203125 63.79101562 C494.88789528 63.87592569 499.44370788 63.94274584 504 64 C504.11452404 100.99477475 504.20258878 137.98952272 504.25532665 174.98443897 C504.26157994 179.35518617 504.26805158 183.72593301 504.2746582 188.09667969 C504.27596976 188.96679148 504.27728131 189.83690326 504.2786326 190.73338208 C504.30037025 204.80942429 504.3397827 218.88536407 504.38576398 232.96134558 C504.43257435 247.41199572 504.46030507 261.86259232 504.47044247 276.31331515 C504.47729215 285.22529339 504.49890105 294.13698206 504.53958233 303.04887113 C504.56607731 309.1658002 504.57398577 315.28258027 504.56750689 321.39956251 C504.56431442 324.92521146 504.56909704 328.45035555 504.59602737 331.975914 C504.62508327 335.80795831 504.61488534 339.63935455 504.60127258 343.47149658 C504.61583679 344.57269939 504.630401 345.67390219 504.64540654 346.80847478 C504.53475557 358.37951864 500.17560546 368.73958536 492 377 C484.66313712 382.8783299 476.63120709 385.46256424 467.34698009 385.37752342 C466.08952497 385.38406391 466.08952497 385.38406391 464.8066667 385.39073652 C462.00287771 385.4016685 459.19958298 385.39128031 456.39579773 385.38095093 C454.36320377 385.38440831 452.33061169 385.38917342 450.29802352 385.39513266 C444.71630814 385.40766147 439.13474656 385.4014636 433.55303061 385.39217401 C427.53176239 385.38539147 421.51052077 385.39586089 415.48925781 385.40411377 C404.37596852 385.41669093 393.26272155 385.4155894 382.14943196 385.40737936 C371.8808082 385.39983069 361.6122024 385.39786352 351.34357643 385.4014473 C350.66225376 385.40167645 349.98093108 385.40190561 349.27896227 385.40214171 C346.51317139 385.40307574 343.74738053 385.40403094 340.98158967 385.405021 C315.03652121 385.41419771 289.09148395 385.40587863 263.1464203 385.38973031 C240.10516516 385.37549834 217.06395978 385.37676337 194.02270508 385.39111328 C168.12941484 385.40718555 142.23615219 385.41354208 116.34285766 385.40427649 C113.5811954 385.40331436 110.81953313 385.40237584 108.05787086 385.4014473 C107.37789133 385.40121006 106.6979118 385.40097283 105.99732683 385.40072841 C95.73824314 385.39731897 85.47917942 385.40130137 75.2200985 385.40888596 C63.55028232 385.41747054 51.88051347 385.41501673 40.2107025 385.39904372 C34.25699189 385.39116308 28.30338217 385.38806596 22.34967232 385.39799118 C16.89738262 385.40694294 11.44528716 385.40199704 5.99301503 385.38605852 C4.02268312 385.38271274 2.05233473 385.38440022 0.08201345 385.39168589 C-26.31342364 385.48178617 -26.31342364 385.48178617 -36 376 C-38.52347314 373.12110811 -40.79965493 370.13081015 -43 367 C-43.8971875 365.7625 -43.8971875 365.7625 -44.8125 364.5 C-48.35393064 357.04435654 -48.28345438 349.04228808 -48.24050903 340.94615173 C-48.24221788 339.75831528 -48.24392673 338.57047882 -48.24568737 337.34664732 C-48.24839973 334.07186682 -48.24219625 330.79724692 -48.23213124 327.52248538 C-48.22345824 323.98273342 -48.22641962 320.44298835 -48.22793579 316.90322876 C-48.22898222 310.77773727 -48.22273103 304.65228853 -48.21146011 298.52680779 C-48.19517511 289.67050238 -48.18999404 280.81421756 -48.18748413 271.9578988 C-48.18311173 257.58756211 -48.16981498 243.21724817 -48.15087891 228.84692383 C-48.13250832 214.89119582 -48.11835759 200.935474 -48.10986328 186.97973633 C-48.10933783 186.11885912 -48.10881239 185.25798191 -48.10827102 184.37101751 C-48.10566086 180.05205666 -48.10313346 175.73309578 -48.10064721 171.41413486 C-48.07992888 135.60940717 -48.04471575 99.80470536 -48 64 C-46.84999512 63.99589111 -45.69999023 63.99178223 -44.51513672 63.98754883 C-40.23197137 63.96571068 -35.94971855 63.91137294 -31.66699219 63.84741211 C-29.81649549 63.82427281 -27.96586785 63.80984595 -26.11523438 63.80444336 C-23.44839266 63.79512375 -20.78359868 63.75407009 -18.1171875 63.70703125 C-16.88402298 63.71293022 -16.88402298 63.71293022 -15.62594604 63.71894836 C-9.73483981 63.57065765 -7.09957517 62.26525981 -3 58 C-0.11046101 52.50642478 -0.64906518 46.10782598 -0.5859375 40.0390625 C-0.56829346 39.02287842 -0.55064941 38.00669434 -0.5324707 36.9597168 C-0.46963887 33.18163569 -0.42329004 29.40329495 -0.375 25.625 C-0.25125 17.16875 -0.1275 8.7125 0 0 Z " fill="#010101" transform="translate(1180,647)"/>
<path d="M0 0 C99 0 198 0 300 0 C300 30.36 300 60.72 300 92 C235.98 92.33 171.96 92.66 106 93 C105.67 142.17 105.34 191.34 105 242 C152.52 242 200.04 242 249 242 C249 251.57 249 261.14 249 271 C166.83 271 84.66 271 0 271 C0 181.57 0 92.14 0 0 Z " fill="#FDFDFC" transform="translate(1258,345)"/>
<path d="M0 0 C26.73 0 53.46 0 81 0 C81 7.92 81 15.84 81 24 C85.95 24 90.9 24 96 24 C96 32.58 96 41.16 96 50 C99.96 50 103.92 50 108 50 C108 75.08 108 100.16 108 126 C104.37 126 100.74 126 97 126 C97 134.25 97 142.5 97 151 C92.38 151 87.76 151 83 151 C83 158.59 83 166.18 83 174 C55.61 174 28.22 174 0 174 C0 116.58 0 59.16 0 0 Z " fill="#060706" transform="translate(1223,1116)"/>
<path d="M0 0 C22.2440625 -0.0309375 22.2440625 -0.0309375 44.9375 -0.0625 C49.62702881 -0.071604 54.31655762 -0.08070801 59.14819336 -0.09008789 C64.85656738 -0.09460449 64.85656738 -0.09460449 67.52540588 -0.09544373 C69.39703102 -0.09698346 71.26865514 -0.10050898 73.14027405 -0.10557556 C75.9684523 -0.11285159 78.79656971 -0.11390747 81.62475586 -0.11352539 C82.46431037 -0.1171235 83.30386488 -0.12072161 84.16886044 -0.12442875 C89.88597366 -0.11402634 89.88597366 -0.11402634 91 1 C91.15714654 2.63256758 91.25085414 4.27135338 91.31640625 5.91015625 C91.35830078 6.89951172 91.40019531 7.88886719 91.44335938 8.90820312 C91.48267578 9.94912109 91.52199219 10.99003906 91.5625 12.0625 C91.60568359 13.10728516 91.64886719 14.15207031 91.69335938 15.22851562 C91.79981225 17.81886884 91.9018276 20.40932186 92 23 C93.39025391 23.09087891 93.39025391 23.09087891 94.80859375 23.18359375 C96.00613281 23.26738281 97.20367188 23.35117188 98.4375 23.4375 C99.63246094 23.51871094 100.82742188 23.59992188 102.05859375 23.68359375 C105 24 105 24 106 25 C106.09346915 26.65738443 106.11744977 28.31874644 106.11352539 29.97875977 C106.11341209 31.57029625 106.11341209 31.57029625 106.11329651 33.19398499 C106.10813522 34.348134 106.10297394 35.50228302 106.09765625 36.69140625 C106.0962413 37.86638168 106.09482635 39.04135712 106.09336853 40.25193787 C106.08774992 44.02215064 106.07519426 47.79230504 106.0625 51.5625 C106.0574874 54.11132727 106.05292408 56.66015547 106.04882812 59.20898438 C106.03777444 65.4726789 106.02049734 71.73632954 106 78 C101.05 78 96.1 78 91 78 C91 85.92 91 93.84 91 102 C70.87 102 50.74 102 30 102 C30 126.09 30 150.18 30 175 C20.1 175 10.2 175 0 175 C0 117.25 0 59.5 0 0 Z " fill="#040504" transform="translate(1095,1116)"/>
<path d="M0 0 C29.7 0 59.4 0 90 0 C90.495 11.385 90.495 11.385 91 23 C97.93 23.495 97.93 23.495 105 24 C105 41.82 105 59.64 105 78 C100.38 78 95.76 78 91 78 C91 85.92 91 93.84 91 102 C70.87 102 50.74 102 30 102 C30 126.09 30 150.18 30 175 C20.1 175 10.2 175 0 175 C0 117.25 0 59.5 0 0 Z " fill="#050605" transform="translate(1594,1116)"/>
<path d="M0 0 C1.60279192 0.00015914 3.20558896 0.00585476 4.80834961 0.01586914 C5.65038437 0.01728409 6.49241913 0.01869904 7.35997009 0.02015686 C10.06024671 0.02577276 12.76044163 0.03832791 15.46069336 0.05102539 C17.28686404 0.05603834 19.11303602 0.06060161 20.93920898 0.06469727 C25.42556878 0.07574735 29.9118672 0.0930226 34.39819336 0.11352539 C38.09147784 7.50009435 36.5297271 19.00227789 36.39819336 27.11352539 C39.03819336 27.11352539 41.67819336 27.11352539 44.39819336 27.11352539 C44.39819336 34.70352539 44.39819336 42.29352539 44.39819336 50.11352539 C46.70819336 50.11352539 49.01819336 50.11352539 51.39819336 50.11352539 C52.39819336 51.11352539 52.39819336 51.11352539 52.51171875 53.70556641 C52.50386353 55.3944397 52.50386353 55.3944397 52.49584961 57.11743164 C52.49101563 58.93984375 52.49101563 58.93984375 52.48608398 60.79907227 C52.47351562 62.71816406 52.47351562 62.71816406 52.46069336 64.67602539 C52.45618164 65.95928711 52.45166992 67.24254883 52.44702148 68.56469727 C52.43518881 71.74768561 52.41870404 74.93058301 52.39819336 78.11352539 C54.70819336 78.11352539 57.01819336 78.11352539 59.39819336 78.11352539 C59.72819336 93.29352539 60.05819336 108.47352539 60.39819336 124.11352539 C63.36819336 124.11352539 66.33819336 124.11352539 69.39819336 124.11352539 C69.39819336 140.61352539 69.39819336 157.11352539 69.39819336 174.11352539 C59.49819336 174.11352539 49.59819336 174.11352539 39.39819336 174.11352539 C39.39819336 158.27352539 39.39819336 142.43352539 39.39819336 126.11352539 C23.22819336 126.11352539 7.05819336 126.11352539 -9.60180664 126.11352539 C-9.60180664 141.95352539 -9.60180664 157.79352539 -9.60180664 174.11352539 C-19.17180664 174.11352539 -28.74180664 174.11352539 -38.60180664 174.11352539 C-38.60180664 157.61352539 -38.60180664 141.11352539 -38.60180664 124.11352539 C-35.63180664 124.11352539 -32.66180664 124.11352539 -29.60180664 124.11352539 C-29.60966187 122.03116577 -29.60966187 122.03116577 -29.61767578 119.90673828 C-29.6357201 114.77621094 -29.64723656 109.64568642 -29.65673828 104.51513672 C-29.66177981 102.29084807 -29.66861287 100.06656276 -29.67724609 97.84228516 C-29.68931962 94.6527423 -29.6950366 91.4632431 -29.69946289 88.27368164 C-29.70462418 87.27264908 -29.70978546 86.27161652 -29.71510315 85.24024963 C-29.71517868 84.31937057 -29.71525421 83.39849152 -29.71533203 82.44970703 C-29.71755264 81.63474258 -29.71977325 80.81977814 -29.72206116 79.9801178 C-29.60180664 78.11352539 -29.60180664 78.11352539 -28.60180664 77.11352539 C-26.62180664 77.11352539 -24.64180664 77.11352539 -22.60180664 77.11352539 C-22.60180664 68.53352539 -22.60180664 59.95352539 -22.60180664 51.11352539 C-19.63180664 51.11352539 -16.66180664 51.11352539 -13.60180664 51.11352539 C-13.60180664 43.52352539 -13.60180664 35.93352539 -13.60180664 28.11352539 C-11.29180664 28.11352539 -8.98180664 28.11352539 -6.60180664 28.11352539 C-6.62500977 27.33750977 -6.64821289 26.56149414 -6.67211914 25.76196289 C-6.81170138 17.40696882 -6.22708619 9.32296664 -4.60180664 1.11352539 C-3.60180664 0.11352539 -3.60180664 0.11352539 0 0 Z " fill="#050605" transform="translate(1877.601806640625,1115.886474609375)"/>
<path d="M0 0 C25.41 0 50.82 0 77 0 C77.495 11.385 77.495 11.385 78 23 C84.93 23.495 84.93 23.495 92 24 C92 32.58 92 41.16 92 50 C82.43 50 72.86 50 63 50 C63 42.08 63 34.16 63 26 C47.49 26 31.98 26 16 26 C16 42.5 16 59 16 76 C36.13 76 56.26 76 77 76 C77.495 86.395 77.495 86.395 78 97 C84.93 97.495 84.93 97.495 92 98 C92 115.49 92 132.98 92 151 C87.38 151 82.76 151 78 151 C78 158.59 78 166.18 78 174 C52.26 174 26.52 174 0 174 C0 166.41 0 158.82 0 151 C-4.62 151 -9.24 151 -14 151 C-14 142.42 -14 133.84 -14 125 C-4.1 125 5.8 125 16 125 C16 133.25 16 141.5 16 150 C31.51 150 47.02 150 63 150 C63 133.83 63 117.66 63 101 C42.21 101 21.42 101 0 101 C0 93.08 0 85.16 0 77 C-4.62 77 -9.24 77 -14 77 C-14 59.51 -14 42.02 -14 24 C-9.38 24 -4.76 24 0 24 C0 16.08 0 8.16 0 0 Z " fill="#050605" transform="translate(1477,1116)"/>
<path d="M0 0 C10.23 0 20.46 0 31 0 C31 16.83 31 33.66 31 51 C35.62 51 40.24 51 45 51 C46 52 46 52 46.11352539 54.31665039 C46.10828857 55.31688232 46.10305176 56.31711426 46.09765625 57.34765625 C46.09443359 58.42724609 46.09121094 59.50683594 46.08789062 60.61914062 C46.07532227 62.32360352 46.07532227 62.32360352 46.0625 64.0625 C46.05798828 65.20267578 46.05347656 66.34285156 46.04882812 67.51757812 C46.0369976 70.34507418 46.0190615 73.17254345 46 76 C51.61 76 57.22 76 63 76 C62.98839844 74.27910156 62.97679687 72.55820313 62.96484375 70.78515625 C62.95546766 68.54427191 62.94636727 66.30338641 62.9375 64.0625 C62.92912109 62.92619141 62.92074219 61.78988281 62.91210938 60.61914062 C62.90888672 59.53955078 62.90566406 58.45996094 62.90234375 57.34765625 C62.89710693 56.34742432 62.89187012 55.34719238 62.88647461 54.31665039 C63 52 63 52 64 51 C69.94 50.505 69.94 50.505 76 50 C76.33 33.5 76.66 17 77 0 C86.9 0 96.8 0 107 0 C107.02290278 7.24491214 107.04283177 14.48969969 107.05493164 21.73461914 C107.05997356 24.20142033 107.06680691 26.66821852 107.07543945 29.13500977 C107.08751125 32.67204529 107.09322956 36.20904145 107.09765625 39.74609375 C107.10281754 40.85649521 107.10797882 41.96689667 107.11329651 43.11094666 C107.11337204 44.13192947 107.11344757 45.15291229 107.11352539 46.20483398 C107.115746 47.10862289 107.11796661 48.0124118 107.12025452 48.94358826 C107 51 107 51 106 52 C102.37 52 98.74 52 95 52 C95 60.58 95 69.16 95 78 C90.05 78 85.1 78 80 78 C80 85.59 80 93.18 80 101 C76.7 101 73.4 101 70 101 C70 125.09 70 149.18 70 174 C60.1 174 50.2 174 40 174 C40 149.91 40 125.82 40 101 C36.37 101 32.74 101 29 101 C29 93.08 29 85.16 29 77 C21.08 77.495 21.08 77.495 13 78 C13 69.42 13 60.84 13 52 C8.71 52 4.42 52 0 52 C0 34.84 0 17.68 0 0 Z " fill="#060706" transform="translate(1967,1116)"/>
<path d="M0 0 C28.05 0 56.1 0 85 0 C85 8.58 85 17.16 85 26 C66.85 26 48.7 26 30 26 C30 42.5 30 59 30 76 C47.49 76 64.98 76 83 76 C83 84.25 83 92.5 83 101 C65.51 101 48.02 101 30 101 C30 125.09 30 149.18 30 174 C20.1 174 10.2 174 0 174 C0 116.58 0 59.16 0 0 Z " fill="#040505" transform="translate(742,1116)"/>
<path d="M0 0 C23.1 0 46.2 0 70 0 C70 8.58 70 17.16 70 26 C69.505 26.495 69.505 26.495 69 27 C62.73 27 56.46 27 50 27 C50 67.26 50 107.52 50 149 C56.6 149 63.2 149 70 149 C70 157.25 70 165.5 70 174 C46.57 174 23.14 174 -1 174 C-1 165.75 -1 157.5 -1 149 C5.93 149 12.86 149 20 149 C20 108.41 20 67.82 20 26 C13.4 26 6.8 26 0 26 C0 17.42 0 8.84 0 0 Z " fill="#030403" transform="translate(990,1116)"/>
<path d="M0 0 C23.43 0 46.86 0 71 0 C71 8.58 71 17.16 71 26 C64.4 26 57.8 26 51 26 C51.33 66.26 51.66 106.52 52 148 C57.94 148.33 63.88 148.66 70 149 C70.02682614 152.97921094 70.04675393 156.95824341 70.0625 160.9375 C70.07087891 162.07380859 70.07925781 163.21011719 70.08789062 164.38085938 C70.09111328 165.46044922 70.09433594 166.54003906 70.09765625 167.65234375 C70.10289307 168.65257568 70.10812988 169.65280762 70.11352539 170.68334961 C70 173 70 173 69 174 C66.85256451 174.09425595 64.70198974 174.11742648 62.55249023 174.11352539 C61.54277664 174.11374443 61.54277664 174.11374443 60.51266479 174.1139679 C58.27794216 174.11326878 56.0433019 174.10547652 53.80859375 174.09765625 C52.26302638 174.09579206 50.71745843 174.09436816 49.17189026 174.09336853 C45.09642923 174.0895434 41.02100363 174.07971317 36.94555664 174.06866455 C32.78988118 174.05845032 28.63420001 174.05387089 24.47851562 174.04882812 C16.31899232 174.03809089 8.15950464 174.02049414 0 174 C0 165.75 0 157.5 0 149 C9.9 148.505 9.9 148.505 20 148 C20.33 107.74 20.66 67.48 21 26 C14.07 26 7.14 26 0 26 C0 17.42 0 8.84 0 0 Z " fill="#050605" transform="translate(1360,1116)"/>
<path d="M0 0 C9.9 0 19.8 0 30 0 C30 48.84 30 97.68 30 148 C50.13 148 70.26 148 91 148 C97.13278983 154.13278983 92 165.32692545 92 174 C61.64 174 31.28 174 0 174 C0 116.58 0 59.16 0 0 Z " fill="#080808" transform="translate(1724,1116)"/>
<path d="M0 0 C9.57 0 19.14 0 29 0 C29 49.17 29 98.34 29 149 C49.79 149 70.58 149 92 149 C92 157.25 92 165.5 92 174 C61.64 174 31.28 174 0 174 C0 116.58 0 59.16 0 0 Z " fill="#040504" transform="translate(863,1116)"/>
<path d="M0 0 C11.22 0 22.44 0 34 0 C34.495 11.385 34.495 11.385 35 23 C38.96 23.33 42.92 23.66 47 24 C47 48.75 47 73.5 47 99 C43.37 99 39.74 99 36 99 C36 106.92 36 114.84 36 123 C24.12 123 12.24 123 0 123 C0 82.41 0 41.82 0 0 Z " fill="#FCFCFC" transform="translate(1253,1142)"/>
<path d="M0 0 C10.89 0 21.78 0 33 0 C33 37.29 33 74.58 33 113 C22.11 113 11.22 113 0 113 C0 75.71 0 38.42 0 0 Z " fill="#060606" transform="translate(1132,583)"/>
<path d="M0 0 C10.89 0 21.78 0 33 0 C33 36.96 33 73.92 33 112 C22.44 112 11.88 112 1 112 C0 111 0 111 -0.12304783 109.14342403 C-0.12212604 108.32579366 -0.12120424 107.50816328 -0.12025452 106.66575623 C-0.12162918 105.73041046 -0.12300385 104.7950647 -0.12442017 103.83137512 C-0.12082489 102.79703842 -0.11722961 101.76270172 -0.11352539 100.69702148 C-0.11367142 99.61422913 -0.11381744 98.53143677 -0.1139679 97.41583252 C-0.11326823 93.81756626 -0.10547333 90.21935103 -0.09765625 86.62109375 C-0.09579226 84.13387582 -0.09436827 81.64665752 -0.09336853 79.15943909 C-0.0899335 73.26978809 -0.08204277 67.3801561 -0.07201904 61.49051291 C-0.05976246 54.12974626 -0.05437791 46.76897736 -0.04882812 39.40820312 C-0.03808815 26.27212419 -0.02049013 13.13606735 0 0 Z " fill="#070707" transform="translate(1651,584)"/>
<path d="M0 0 C14.85 0 29.7 0 45 0 C45 16.83 45 33.66 45 51 C30.15 51 15.3 51 0 51 C0 34.17 0 17.34 0 0 Z " fill="#F6F6F6" transform="translate(1624,1142)"/>
<path d="M0 0 C14.85 0 29.7 0 45 0 C45 16.83 45 33.66 45 51 C30.15 51 15.3 51 0 51 C0 34.17 0 17.34 0 0 Z " fill="#F9F9F8" transform="translate(1125,1142)"/>
<path d="M0 0 C3.96 0 7.92 0 12 0 C13.3300103 8.97756951 13.08788039 17.94831966 13 27 C15.64 27 18.28 27 21 27 C21 34.59 21 42.18 21 50 C11.1 50 1.2 50 -9 50 C-9 42.41 -9 34.82 -9 27 C-5.535 26.505 -5.535 26.505 -2 26 C-1.93941406 24.70964844 -1.87882812 23.41929688 -1.81640625 22.08984375 C-1.73194119 20.37238745 -1.64729623 18.65493998 -1.5625 16.9375 C-1.52318359 16.08994141 -1.48386719 15.24238281 -1.44335938 14.36914062 C-1.19996611 9.51999791 -0.77401958 4.79371788 0 0 Z " fill="#F9F9F7" transform="translate(1887,1167)"/>
<path d="M0 0 C29.7 0 59.4 0 90 0 C90 0.33 90 0.66 90 1 C60.63 1 31.26 1 1 1 C1.165 11.663125 1.33 22.32625 1.5 33.3125 C1.79001161 53.08878523 2.04584477 72.8619873 2.03125 92.640625 C2.03074142 93.38278448 2.03023285 94.12494396 2.02970886 94.88959312 C2.02280018 102.6137433 1.99965738 110.33770534 1.96289062 118.06176758 C1.89335174 136.39840904 2.32212538 154.67847137 3 173 C11.58 173.33 20.16 173.66 29 174 C29 150.24 29 126.48 29 102 C29.33 102 29.66 102 30 102 C30 126.09 30 150.18 30 175 C20.1 175 10.2 175 0 175 C0 117.25 0 59.5 0 0 Z " fill="#393A38" transform="translate(1095,1116)"/>
<path d="M0 0 C23.1 0 46.2 0 70 0 C70 8.58 70 17.16 70 26 C69.505 26.495 69.505 26.495 69 27 C62.73 27 56.46 27 50 27 C50 66.93 50 106.86 50 148 C49.67 148 49.34 148 49 148 C48.98969254 146.70374191 48.97938507 145.40748383 48.96876526 144.07194519 C48.87113142 131.87314707 48.76840689 119.6744011 48.66066074 107.47568798 C48.60542824 101.20378074 48.55200764 94.93186884 48.50268555 88.65991211 C48.45504693 82.61041953 48.40270419 76.56098449 48.34705925 70.51156044 C48.32663344 68.20024353 48.30792074 65.88891083 48.29092598 63.57756615 C48.2668871 60.34746964 48.23683164 57.11748221 48.20532227 53.88745117 C48.19668907 52.4449147 48.19668907 52.4449147 48.18788147 50.97323608 C48.17809265 50.09404007 48.16830383 49.21484406 48.15821838 48.30900574 C48.15176583 47.54483935 48.14531328 46.78067297 48.1386652 45.99335003 C48.06873766 43.79016232 48.06873766 43.79016232 47 41 C46.90488839 38.64738643 46.87013024 36.29203033 46.875 33.9375 C46.87242188 32.68839844 46.86984375 31.43929688 46.8671875 30.15234375 C47 27 47 27 48 25 C54.93 25 61.86 25 69 25 C68.85987863 21.35386304 68.71318602 17.70820211 68.5625 14.0625 C68.52318359 13.02158203 68.48386719 11.98066406 68.44335938 10.90820312 C68.40146484 9.91884766 68.35957031 8.92949219 68.31640625 7.91015625 C68.27974854 6.99371338 68.24309082 6.07727051 68.20532227 5.13305664 C68.22996136 3.0179272 68.22996136 3.0179272 67 2 C64.9145818 1.8761366 62.82499859 1.82200933 60.73608398 1.79467773 C60.08244873 1.78477814 59.42881348 1.77487854 58.75537109 1.76467896 C56.58564936 1.73298366 54.4159057 1.70827508 52.24609375 1.68359375 C50.74536048 1.66303113 49.2446331 1.64203485 47.74391174 1.62062073 C43.78688307 1.56532845 39.82980151 1.51595089 35.87268066 1.46777344 C31.8375984 1.4176105 27.80259328 1.36189732 23.76757812 1.30664062 C15.84511723 1.1989716 7.92259196 1.09754621 0 1 C0 0.67 0 0.34 0 0 Z " fill="#565754" transform="translate(990,1116)"/>
<path d="M0 0 C11.22 0 22.44 0 34 0 C34 0.33 34 0.66 34 1 C21.625 1.495 21.625 1.495 9 2 C8.67 2.66 8.34 3.32 8 4 C7.01 4.33 6.02 4.66 5 5 C2.28438511 7.88178954 1.62304222 9.85240055 1.60127258 13.77093506 C1.58873444 14.72723312 1.57619629 15.68353119 1.5632782 16.66880798 C1.56471329 17.71106033 1.56614838 18.75331268 1.56762695 19.82714844 C1.5574353 20.92988602 1.54724365 22.0326236 1.53674316 23.16877747 C1.5065358 26.81569448 1.49733514 30.46234915 1.48828125 34.109375 C1.47144036 36.63715493 1.45329092 39.16492646 1.43388367 41.69268799 C1.39117648 47.66722162 1.36167312 53.64167953 1.33856028 59.6163094 C1.31150676 66.41925565 1.26759541 73.22206045 1.22227156 80.02490568 C1.12942999 94.01654334 1.0599725 108.00818483 1 122 C12.22 122 23.44 122 35 122 C35 114.41 35 106.82 35 99 C35.33 99 35.66 99 36 99 C36 106.92 36 114.84 36 123 C24.12 123 12.24 123 0 123 C0 82.41 0 41.82 0 0 Z " fill="#CACAC6" transform="translate(1253,1142)"/>
<path d="M0 0 C0.33 0 0.66 0 1 0 C1 1.98 1 3.96 1 6 C1.66 6.33 2.32 6.66 3 7 C3 25.15 3 43.3 3 62 C2.34 62 1.68 62 1 62 C1 66.29 1 70.58 1 75 C0.67 75 0.34 75 0 75 C0 50.25 0 25.5 0 0 Z " fill="#303130" transform="translate(1300,1166)"/>
<path d="M0 0 C3.63 0 7.26 0 11 0 C11 0.33 11 0.66 11 1 C8.69 1 6.38 1 4 1 C4 17.5 4 34 4 51 C3.01 51 2.02 51 1 51 C-0.07917226 47.76248322 -0.11425601 45.42248229 -0.09765625 42.01953125 C-0.09443359 40.85615234 -0.09121094 39.69277344 -0.08789062 38.49414062 C-0.07951172 37.27919922 -0.07113281 36.06425781 -0.0625 34.8125 C-0.05798828 33.58595703 -0.05347656 32.35941406 -0.04882812 31.09570312 C-0.03703065 28.06375332 -0.02056921 25.03190094 0 22 C0.66 22 1.32 22 2 22 C2 19.03 2 16.06 2 13 C1.34 13.99 0.68 14.98 0 16 C0 10.72 0 5.44 0 0 Z M2 35 C3 38 3 38 3 38 Z " fill="#F7F7F4" transform="translate(1128,710)"/>
<path d="M0 0 C1.98 0 3.96 0 6 0 C6 16.5 6 33 6 50 C-3.9 50 -13.8 50 -24 50 C-24 38.12 -24 26.24 -24 14 C-23.67 14 -23.34 14 -23 14 C-23 25.55 -23 37.1 -23 49 C-14.09 49 -5.18 49 4 49 C3.63358049 42.73280756 3.63358049 42.73280756 3.25170898 36.46655273 C2.98030406 31.46306352 3.20898672 26.96580557 4 22 C4.25875185 18.35724247 4.41037177 14.71108362 4.5625 11.0625 C4.60568359 10.09248047 4.64886719 9.12246094 4.69335938 8.12304688 C4.79862093 5.74881399 4.90075707 3.37449079 5 1 C3.35 1 1.7 1 0 1 C0 0.67 0 0.34 0 0 Z " fill="#31342F" transform="translate(1941,1240)"/>
<path d="M0 0 C0.66 0 1.32 0 2 0 C2 8.25 2 16.5 2 25 C-16.15 25 -34.3 25 -53 25 C-53 36.88 -53 48.76 -53 61 C-53.33 61 -53.66 61 -54 61 C-54 48.79 -54 36.58 -54 24 C-36.51 23.67 -19.02 23.34 -1 23 C-1 17.72 -1 12.44 -1 7 C-0.67 4.69 -0.34 2.38 0 0 Z " fill="#1C1F1A" transform="translate(825,1117)"/>
<path d="M0 0 C0.33 0 0.66 0 1 0 C1 6.27 1 12.54 1 19 C1.66 19 2.32 19 3 19 C3 30.55 3 42.1 3 54 C2.34 54 1.68 54 1 54 C1 56.97 1 59.94 1 63 C0.67 63 0.34 63 0 63 C-1.12605556 41.92667446 -0.81951276 21.07318526 0 0 Z " fill="#F7F6F4" transform="translate(1720,1153)"/>
<path d="M0 0 C0.33 0 0.66 0 1 0 C1 15.84 1 31.68 1 48 C0.67 47.34 0.34 46.68 0 46 C-0.66 46 -1.32 46 -2 46 C-2.33 46.66 -2.66 47.32 -3 48 C-3.84191782 45.0751367 -4.11819313 42.49258344 -4.09765625 39.453125 C-4.09443359 38.60878906 -4.09121094 37.76445312 -4.08789062 36.89453125 C-4.07951172 36.02183594 -4.07113281 35.14914062 -4.0625 34.25 C-4.05798828 33.36183594 -4.05347656 32.47367187 -4.04882812 31.55859375 C-4.037074 29.37232671 -4.02064249 27.18619821 -4 25 C-3.34 25 -2.68 25 -2 25 C-1.67 25.66 -1.34 26.32 -1 27 C-0.67 18.09 -0.34 9.18 0 0 Z " fill="#F5F4F2" transform="translate(1131,318)"/>
<path d="M0 0 C0.33 0 0.66 0 1 0 C1 16.17 1 32.34 1 49 C0.67 49 0.34 49 0 49 C0 45.37 0 41.74 0 38 C-0.66 38 -1.32 38 -2 38 C-2.33 38.66 -2.66 39.32 -3 40 C-3 28.12 -3 16.24 -3 4 C-2.67 4 -2.34 4 -2 4 C-1.67 10.27 -1.34 16.54 -1 23 C-0.67 15.41 -0.34 7.82 0 0 Z " fill="#CACAC8" transform="translate(2043,1117)"/>
<path d="M0 0 C0.33 0 0.66 0 1 0 C1 10.89 1 21.78 1 33 C0.34 33 -0.32 33 -1 33 C-1.33 33.99 -1.66 34.98 -2 36 C-2.66 35.67 -3.32 35.34 -4 35 C-4 30.33333333 -4 25.66666667 -4 21 C-4.061875 20.01 -4.12375 19.02 -4.1875 18 C-4 15 -4 15 -2.53125 13.69921875 C-0.2973042 11.22022277 -0.48881524 9.09196345 -0.3125 5.8125 C-0.24675781 4.72582031 -0.18101563 3.63914062 -0.11328125 2.51953125 C-0.07589844 1.68808594 -0.03851562 0.85664063 0 0 Z " fill="#F6F5F4" transform="translate(1131,367)"/>
<path d="M0 0 C0.33 0.66 0.66 1.32 1 2 C-5.6 2.33 -12.2 2.66 -19 3 C-18.34 4.32 -17.68 5.64 -17 7 C-16.67953305 9.56930896 -16.4482691 12.04785561 -16.3125 14.625 C-16.26544922 15.305625 -16.21839844 15.98625 -16.16992188 16.6875 C-15.86587164 21.73174328 -15.86587164 21.73174328 -17 24 C-10.07 24.495 -10.07 24.495 -3 25 C-3 25.33 -3 25.66 -3 26 C-8.61 26 -14.22 26 -20 26 C-20 17.75 -20 9.5 -20 1 C-10.1 0.505 -10.1 0.505 0 0 Z " fill="#171A19" transform="translate(1380,1264)"/>
<path d="M0 0 C0.33 0 0.66 0 1 0 C1 8.25 1 16.5 1 25 C-3.62 25 -8.24 25 -13 25 C-13 32.59 -13 40.18 -13 48 C-13.33 48 -13.66 48 -14 48 C-16.09897453 40.39121732 -16.71203762 32.88476957 -16 25 C-14 23 -14 23 -11.7578125 22.76953125 C-10.88898438 22.78371094 -10.02015625 22.79789063 -9.125 22.8125 C-8.26132813 22.81894531 -7.39765625 22.82539062 -6.5078125 22.83203125 C-4 23 -4 23 0 24 C0 16.08 0 8.16 0 0 Z " fill="#4C4D49" transform="translate(1319,1242)"/>
<path d="M0 0 C0.33 0 0.66 0 1 0 C1 3.3 1 6.6 1 10 C1.66 10 2.32 10 3 10 C3 18.58 3 27.16 3 36 C2.34 36 1.68 36 1 36 C1 39.3 1 42.6 1 46 C0.67 46 0.34 46 0 46 C0 30.82 0 15.64 0 0 Z " fill="#F5F5F2" transform="translate(1720,1223)"/>
<path d="M0 0 C1.32 0 2.64 0 4 0 C4 1.32 4 2.64 4 4 C16.54 4 29.08 4 42 4 C42 4.33 42 4.66 42 5 C41.23333008 5.01458252 40.46666016 5.02916504 39.67675781 5.04418945 C36.20066507 5.1186922 32.72553032 5.21534646 29.25 5.3125 C28.0434375 5.33505859 26.836875 5.35761719 25.59375 5.38085938 C24.43359375 5.41630859 23.2734375 5.45175781 22.078125 5.48828125 C21.00981445 5.51446533 19.94150391 5.54064941 18.84082031 5.56762695 C15.71897682 6.04277175 14.31298705 6.90416047 12 9 C11.34 8.67 10.68 8.34 10 8 C9.34 8 8.68 8 8 8 C8 8.33 8 8.66 8 9 C6.35 9 4.7 9 3 9 C3 8.01 3 7.02 3 6 C2.01 5.67 1.02 5.34 0 5 C0 3.35 0 1.7 0 0 Z " fill="#DBDFD9" transform="translate(1128,564)"/>
<path d="M0 0 C0.33 0 0.66 0 1 0 C1 8.25 1 16.5 1 25 C-16.16 25 -33.32 25 -51 25 C-51 24.67 -51 24.34 -51 24 C-34.5 24 -18 24 -1 24 C-1.495 19.545 -1.495 19.545 -2 15 C-1.77971233 12.3033751 -1.47209645 9.61192391 -1.0625 6.9375 C-0.96259766 6.26267578 -0.86269531 5.58785156 -0.75976562 4.89257812 C-0.51664214 3.2601776 -0.25982721 1.62982524 0 0 Z " fill="#1A1E1A" transform="translate(824,1192)"/>
<path d="M0 0 C1.32 0.33 2.64 0.66 4 1 C4 10.57 4 20.14 4 30 C2.68 30 1.36 30 0 30 C0.495 28.515 0.495 28.515 1 27 C1.66 27 2.32 27 3 27 C2.484375 26.236875 1.96875 25.47375 1.4375 24.6875 C0.963125 23.800625 0.48875 22.91375 0 22 C0.495 20.515 0.495 20.515 1 19 C0.835 17.906875 0.67 16.81375 0.5 15.6875 C0.0101383 12.07476996 0.36950856 9.54651437 1 6 C0.62092718 3.81296615 0.62092718 3.81296615 0 2 C0 1.34 0 0.68 0 0 Z " fill="#F8F8F4" transform="translate(1128,514)"/>
<path d="M0 0 C2.40748668 0.45221127 3.87858244 0.16803979 6.18359375 -0.58984375 C6.18359375 0.07015625 6.18359375 0.73015625 6.18359375 1.41015625 C7.50359375 1.41015625 8.82359375 1.41015625 10.18359375 1.41015625 C10.18359375 0.75015625 10.18359375 0.09015625 10.18359375 -0.58984375 C11.83359375 -0.58984375 13.48359375 -0.58984375 15.18359375 -0.58984375 C15.18359375 -0.25984375 15.18359375 0.07015625 15.18359375 0.41015625 C23.43359375 0.74015625 31.68359375 1.07015625 40.18359375 1.41015625 C40.18359375 1.74015625 40.18359375 2.07015625 40.18359375 2.41015625 C23.68359375 2.74015625 7.18359375 3.07015625 -9.81640625 3.41015625 C-9.81640625 2.75015625 -9.81640625 2.09015625 -9.81640625 1.41015625 C-10.47640625 1.08015625 -11.13640625 0.75015625 -11.81640625 0.41015625 C-7.46084803 -2.11887755 -4.58257549 -1.32632601 0 0 Z " fill="#F1F1EF" transform="translate(1168.81640625,243.58984375)"/>
<path d="M0 0 C4.95 0 9.9 0 15 0 C15 8.25 15 16.5 15 25 C14.34 25 13.68 25 13 25 C12.38794237 17.3164908 11.86707801 9.70947565 12 2 C8.04 1.67 4.08 1.34 0 1 C0 0.67 0 0.34 0 0 Z " fill="#444540" transform="translate(1304,1140)"/>
<path d="M0 0 C0.33 0 0.66 0 1 0 C1.02897435 4.27081914 1.04678996 8.54161309 1.0625 12.8125 C1.07087891 14.02744141 1.07925781 15.24238281 1.08789062 16.49414062 C1.09111328 17.65751953 1.09433594 18.82089844 1.09765625 20.01953125 C1.10289307 21.09307861 1.10812988 22.16662598 1.11352539 23.27270508 C1 26 1 26 0 29 C-0.66 29 -1.32 29 -2 29 C-2.0578304 24.54172074 -2.09353855 20.0835372 -2.125 15.625 C-2.14175781 14.35398437 -2.15851563 13.08296875 -2.17578125 11.7734375 C-2.18222656 10.56171875 -2.18867187 9.35 -2.1953125 8.1015625 C-2.21102295 6.42054443 -2.21102295 6.42054443 -2.22705078 4.70556641 C-2 2 -2 2 0 0 Z " fill="#F8F8F6" transform="translate(1362,713)"/>
<path d="M0 0 C1.04449911 3.13349732 0.93423645 3.98968256 0 7 C-0.66 6.67 -1.32 6.34 -2 6 C-2 6.99 -2 7.98 -2 9 C-1.34 9 -0.68 9 0 9 C0 9.66 0 10.32 0 11 C-0.66 11 -1.32 11 -2 11 C-2.33 11.99 -2.66 12.98 -3 14 C-3 10.37 -3 6.74 -3 3 C-13.56 3 -24.12 3 -35 3 C-35 2.67 -35 2.34 -35 2 C-34.29391602 1.98018066 -33.58783203 1.96036133 -32.86035156 1.93994141 C-29.65653006 1.84459585 -26.45335199 1.73495487 -23.25 1.625 C-22.13882812 1.5940625 -21.02765625 1.563125 -19.8828125 1.53125 C-18.81289062 1.49257813 -17.74296875 1.45390625 -16.640625 1.4140625 C-15.16384277 1.36693115 -15.16384277 1.36693115 -13.65722656 1.31884766 C-1.02439576 -0.19699919 -1.02439576 -0.19699919 0 0 Z " fill="#CFD0CD" transform="translate(1687,581)"/>
<path d="M0 0 C0.33 0 0.66 0 1 0 C1.06058594 0.98742188 1.12117188 1.97484375 1.18359375 2.9921875 C1.26738281 4.27351563 1.35117188 5.55484375 1.4375 6.875 C1.51871094 8.15117188 1.59992188 9.42734375 1.68359375 10.7421875 C1.79206027 13.88300152 1.79206027 13.88300152 3 16 C3.0980731 18.86431142 3.13902649 21.69875884 3.125 24.5625 C3.12886719 25.35591797 3.13273437 26.14933594 3.13671875 26.96679688 C3.12663067 32.87336933 3.12663067 32.87336933 2 34 C1.76712992 35.68183948 1.58735834 37.3712416 1.4375 39.0625 C1.35371094 39.98160156 1.26992187 40.90070313 1.18359375 41.84765625 C1.12300781 42.55792969 1.06242187 43.26820312 1 44 C0.67 44 0.34 44 0 44 C0 29.48 0 14.96 0 0 Z " fill="#3E403C" transform="translate(1848,1194)"/>
<path d="M0 0 C0.33 0 0.66 0 1 0 C1 8.91 1 17.82 1 27 C0.01 27.33 -0.98 27.66 -2 28 C-2.86809439 22.79826905 -3.12515348 17.83021184 -3.0625 12.5625 C-3.05798828 11.83095703 -3.05347656 11.09941406 -3.04882812 10.34570312 C-3.03718148 8.56376581 -3.01925191 6.78187137 -3 5 C-2.34 4.67 -1.68 4.34 -1 4 C-0.34786708 1.97536745 -0.34786708 1.97536745 0 0 Z " fill="#F6F6F2" transform="translate(1131,471)"/>
<path d="M0 0 C1.65 0 3.3 0 5 0 C5 11.88 5 23.76 5 36 C4.67 36 4.34 36 4 36 C3.67 27.42 3.34 18.84 3 10 C2.01 10.33 1.02 10.66 0 11 C0 7.37 0 3.74 0 0 Z " fill="#F1F1EF" transform="translate(1127,278)"/>
<path d="M0 0 C0.33 0 0.66 0 1 0 C1 4.62 1 9.24 1 14 C2.65 14.33 4.3 14.66 6 15 C5.835 16.093125 5.67 17.18625 5.5 18.3125 C4.93281816 21.87525873 4.93281816 21.87525873 5 25 C4.68911632 26.67099977 4.35919668 28.33871537 4 30 C3.525625 29.34 3.05125 28.68 2.5625 28 C2.046875 27.34 1.53125 26.68 1 26 C0.67 26 0.34 26 0 26 C0 17.42 0 8.84 0 0 Z " fill="#F2F2EE" transform="translate(1331,1212)"/>
<path d="M0 0 C3.63 0 7.26 0 11 0 C11.05410136 3.06273831 11.09372225 6.12451452 11.125 9.1875 C11.14175781 10.05181641 11.15851563 10.91613281 11.17578125 11.80664062 C11.21038233 16.32208103 11.15567916 19.90081483 9 24 C8.67 24 8.34 24 8 24 C8 16.41 8 8.82 8 1 C5.36 1 2.72 1 0 1 C0 0.67 0 0.34 0 0 Z " fill="#30312D" transform="translate(1900,1193)"/>
<path d="M0 0 C11.22 0 22.44 0 34 0 C34 0.33 34 0.66 34 1 C21.625 1.495 21.625 1.495 9 2 C8.67 2.66 8.34 3.32 8 4 C7.01 4.33 6.02 4.66 5 5 C3.62804426 6.29355827 2.28817344 7.62298702 1 9 C0.67 6.03 0.34 3.06 0 0 Z " fill="#E2E3DF" transform="translate(1253,1142)"/>
<path d="M0 0 C0.66 0.33 1.32 0.66 2 1 C2.33 0.67 2.66 0.34 3 0 C4.69141656 0.08963062 6.37959602 0.24577676 8.0625 0.4375 C9.44115234 0.59025391 9.44115234 0.59025391 10.84765625 0.74609375 C11.55792969 0.82988281 12.26820312 0.91367188 13 1 C13 0.67 13 0.34 13 0 C14.65 0 16.3 0 18 0 C18 0.33 18 0.66 18 1 C23.94 1.33 29.88 1.66 36 2 C36 2.33 36 2.66 36 3 C19.17 3 2.34 3 -15 3 C-15 2.67 -15 2.34 -15 2 C-10.05 2 -5.1 2 0 2 C0 1.34 0 0.68 0 0 Z " fill="#F6F5F5" transform="translate(1321,243)"/>
<path d="M0 0 C3.63 0 7.26 0 11 0 C11 0.33 11 0.66 11 1 C7.7 1 4.4 1 1 1 C1.144375 2.464375 1.28875 3.92875 1.4375 5.4375 C1.51871094 6.26121094 1.59992188 7.08492187 1.68359375 7.93359375 C1.78930815 9.98662025 1.78930815 9.98662025 3 11 C3.04080783 12.99958364 3.04254356 15.00045254 3 17 C3.66 17 4.32 17 5 17 C4.75 18.875 4.75 18.875 4 21 C2.02 21.99 2.02 21.99 0 23 C0 15.41 0 7.82 0 0 Z " fill="#161715" transform="translate(1289,1241)"/>
<path d="M0 0 C0.89203125 0.20367187 1.7840625 0.40734375 2.703125 0.6171875 C3.37859375 0.78476563 4.0540625 0.95234375 4.75 1.125 C4.75 1.785 4.75 2.445 4.75 3.125 C6.07 2.795 7.39 2.465 8.75 2.125 C7.76 2.62 7.76 2.62 6.75 3.125 C7.08 4.115 7.41 5.105 7.75 6.125 C7.3125 8.8125 7.3125 8.8125 6.75 11.125 C6.34910156 10.73828125 5.94820312 10.3515625 5.53515625 9.953125 C0.99983564 5.79831881 -3.52749121 3.33095577 -9.25 1.125 C-5.82794357 -1.03377391 -3.8855015 -0.92025036 0 0 Z " fill="#ECECEA" transform="translate(1668.25,246.875)"/>
<path d="M0 0 C0.33 0 0.66 0 1 0 C1.16912828 2.85403975 1.33537163 5.70820002 1.5 8.5625 C1.54769531 9.36236328 1.59539062 10.16222656 1.64453125 10.98632812 C2.41015625 24.38476562 2.41015625 24.38476562 0 28 C-1.74073204 26.25926796 -1.13022093 23.86908365 -1.1328125 21.50390625 C-1.13410156 20.38822266 -1.13539062 19.27253906 -1.13671875 18.12304688 C-1.13285156 16.94806641 -1.12898438 15.77308594 -1.125 14.5625 C-1.12886719 13.39138672 -1.13273437 12.22027344 -1.13671875 11.01367188 C-1.13542969 9.89669922 -1.13414063 8.77972656 -1.1328125 7.62890625 C-1.13168457 6.59838135 -1.13055664 5.56785645 -1.12939453 4.50610352 C-1 2 -1 2 0 0 Z " fill="#F6F6F3" transform="translate(1127,1153)"/>
<path d="M0 0 C0.66 0 1.32 0 2 0 C2.05802698 3.43742918 2.09360486 6.87473253 2.125 10.3125 C2.14175781 11.28896484 2.15851562 12.26542969 2.17578125 13.27148438 C2.18222656 14.20927734 2.18867187 15.14707031 2.1953125 16.11328125 C2.20578613 16.97735596 2.21625977 17.84143066 2.22705078 18.73168945 C2 21 2 21 0 24 C-1.81265169 16.145176 -1.43580976 7.89695369 0 0 Z " fill="#151914" transform="translate(825,1117)"/>
<path d="M0 0 C0.66 0 1.32 0 2 0 C3.19988152 4.57454828 4 8.27163338 4 13 C7.3 13.33 10.6 13.66 14 14 C14 14.33 14 14.66 14 15 C11.85423363 15.02685938 9.70837355 15.04633088 7.5625 15.0625 C6.36753906 15.07410156 5.17257812 15.08570313 3.94140625 15.09765625 C1 15 1 15 0 14 C-0.07271741 11.64686445 -0.08370868 9.29166332 -0.0625 6.9375 C-0.05347656 5.64714844 -0.04445313 4.35679688 -0.03515625 3.02734375 C-0.02355469 2.02832031 -0.01195312 1.02929688 0 0 Z " fill="#D8D8D6" transform="translate(1684,1125)"/>
<path d="M0 0 C0.33 0 0.66 0 1 0 C1.06058594 0.77085938 1.12117188 1.54171875 1.18359375 2.3359375 C1.26738281 3.33882812 1.35117188 4.34171875 1.4375 5.375 C1.51871094 6.37273437 1.59992188 7.37046875 1.68359375 8.3984375 C1.84965626 10.97927613 1.84965626 10.97927613 3 13 C2.67 13.66 2.34 14.32 2 15 C2.99 15.33 3.98 15.66 5 16 C4.01 16.33 3.02 16.66 2 17 C2.99 17.33 3.98 17.66 5 18 C4.67 19.32 4.34 20.64 4 22 C3.34 22 2.68 22 2 22 C2 23.32 2 24.64 2 26 C1.34 26 0.68 26 0 26 C0 17.42 0 8.84 0 0 Z " fill="#D0D1CD" transform="translate(1060,1116)"/>
<path d="M0 0 C3.63 0 7.26 0 11 0 C11 0.33 11 0.66 11 1 C8.69 1 6.38 1 4 1 C4 4.3 4 7.6 4 11 C3.34 11 2.68 11 2 11 C1.67 12.65 1.34 14.3 1 16 C0.67 16 0.34 16 0 16 C0 10.72 0 5.44 0 0 Z " fill="#F2F1EC" transform="translate(1128,710)"/>
<path d="M0 0 C1.485 0.99 1.485 0.99 3 2 C2.814375 2.70125 2.62875 3.4025 2.4375 4.125 C1.84280588 6.97391103 1.84280588 6.97391103 2.5 9.6875 C3.1857038 14.23028767 2.58238115 18.46638672 2 23 C1.34 23 0.68 23 0 23 C0 15.41 0 7.82 0 0 Z " fill="#F1F0EC" transform="translate(1165,634)"/>
<path d="M0 0 C0.66 0 1.32 0 2 0 C2 4.29 2 8.58 2 13 C0.35 13 -1.3 13 -3 13 C-2.67 12.01 -2.34 11.02 -2 10 C-2.99 9.67 -3.98 9.34 -5 9 C-5 8.34 -5 7.68 -5 7 C-4.0409375 6.6596875 -4.0409375 6.6596875 -3.0625 6.3125 C-0.72806339 5.14749104 -0.72806339 5.14749104 -0.25 2.375 C-0.1675 1.59125 -0.085 0.8075 0 0 Z " fill="#F5F6F3" transform="translate(1853,1180)"/>
<path d="M0 0 C0.99 0.33 1.98 0.66 3 1 C-3.61518325 13.04908377 -3.61518325 13.04908377 -10 15 C-10 14.01 -10 13.02 -10 12 C-9.34 12 -8.68 12 -8 12 C-8 11.34 -8 10.68 -8 10 C-7.01 10 -6.02 10 -5 10 C-4.814375 8.8553125 -4.814375 8.8553125 -4.625 7.6875 C-4 5 -4 5 -2 2 C-1.34 2 -0.68 2 0 2 C0 1.34 0 0.68 0 0 Z " fill="#181918" transform="translate(1677,1011)"/>
<path d="M0 0 C0.81700882 0.00141495 1.63401764 0.0028299 2.4757843 0.00428772 C5.08415393 0.00988331 7.69243759 0.02243496 10.30078125 0.03515625 C12.06966022 0.04017182 13.83854053 0.04473463 15.60742188 0.04882812 C19.94274144 0.05985129 24.27799677 0.07711287 28.61328125 0.09765625 C28.61328125 0.42765625 28.61328125 0.75765625 28.61328125 1.09765625 C27.62932373 1.1227124 26.64536621 1.14776855 25.6315918 1.17358398 C21.98058068 1.26776445 18.32975509 1.36795915 14.67895508 1.4699707 C13.0989211 1.5132793 11.51884156 1.55495731 9.9387207 1.5949707 C7.66734077 1.65277208 5.39618936 1.71643785 3.125 1.78125 C2.41864914 1.79796249 1.71229828 1.81467499 0.98454285 1.83189392 C-2.05320115 1.92363095 -4.48294933 2.12973311 -7.38671875 3.09765625 C-7.71671875 3.75765625 -8.04671875 4.41765625 -8.38671875 5.09765625 C-9.37671875 3.77765625 -10.36671875 2.45765625 -11.38671875 1.09765625 C-7.56516495 -0.17619502 -3.97987405 -0.02587563 0 0 Z " fill="#E0E1DE" transform="translate(1655.38671875,567.90234375)"/>
<path d="M0 0 C2 2 2 2 2.24291992 3.83178711 C2.23881104 4.5563208 2.23470215 5.28085449 2.23046875 6.02734375 C2.22853516 6.81947266 2.22660156 7.61160156 2.22460938 8.42773438 C2.21236328 9.25595703 2.20011719 10.08417969 2.1875 10.9375 C2.18685547 11.76185547 2.18621094 12.58621094 2.18554688 13.43554688 C2.15988965 16.94488444 2.120149 19.63955301 1 23 C0.34 23 -0.32 23 -1 23 C-1.02887512 19.35418313 -1.04675585 15.70839537 -1.0625 12.0625 C-1.07087891 11.02158203 -1.07925781 9.98066406 -1.08789062 8.90820312 C-1.09272461 7.42416992 -1.09272461 7.42416992 -1.09765625 5.91015625 C-1.10289307 4.99371338 -1.10812988 4.07727051 -1.11352539 3.13305664 C-1 1 -1 1 0 0 Z " fill="#F0F0EC" transform="translate(1166,610)"/>
<path d="M0 0 C0.98484375 0.11085938 1.9696875 0.22171875 2.984375 0.3359375 C3.73203125 0.43132813 4.4796875 0.52671875 5.25 0.625 C5.25 1.285 5.25 1.945 5.25 2.625 C1.62 2.625 -2.01 2.625 -5.75 2.625 C-5.75 4.605 -5.75 6.585 -5.75 8.625 C-6.08 7.965 -6.41 7.305 -6.75 6.625 C-7.41 6.625 -8.07 6.625 -8.75 6.625 C-8.75 7.285 -8.75 7.945 -8.75 8.625 C-9.41 8.295 -10.07 7.965 -10.75 7.625 C-10.5 4.75 -10.5 4.75 -9.75 1.625 C-6.49256563 -0.72759149 -3.8808866 -0.46201031 0 0 Z " fill="#EFEFEA" transform="translate(1137.75,580.375)"/>
<path d="M0 0 C0.33 0 0.66 0 1 0 C1 3.3 1 6.6 1 10 C1.66 10 2.32 10 3 10 C3 10.66 3 11.32 3 12 C2.34 12 1.68 12 1 12 C1.309375 12.598125 1.61875 13.19625 1.9375 13.8125 C4.18604651 18.44186047 4.18604651 18.44186047 3 22 C2.34 22 1.68 22 1 22 C1 23.32 1 24.64 1 26 C1.66 26 2.32 26 3 26 C3 26.66 3 27.32 3 28 C1.68 27.67 0.36 27.34 -1 27 C-0.67 18.09 -0.34 9.18 0 0 Z " fill="#EFF0ED" transform="translate(1684,545)"/>
<path d="M0 0 C1.65 0 3.3 0 5 0 C4.67 0.99 4.34 1.98 4 3 C-5.24 3 -14.48 3 -24 3 C-24 2.67 -24 2.34 -24 2 C-16.08747 0.2891827 -7.93304082 0.58968163 0 2 C0 1.34 0 0.68 0 0 Z " fill="#E7E7E3" transform="translate(1680,708)"/>
<path d="M0 0 C0.33 0 0.66 0 1 0 C1.19647038 2.68711024 1.38239615 5.37428331 1.5625 8.0625 C1.61857422 8.81466797 1.67464844 9.56683594 1.73242188 10.34179688 C2.04000617 15.07859502 1.83807173 19.32542212 1 24 C0.34 24 -0.32 24 -1 24 C-1.02893932 20.37501666 -1.04677792 16.75006287 -1.0625 13.125 C-1.07087891 12.09246094 -1.07925781 11.05992188 -1.08789062 9.99609375 C-1.09111328 9.00996094 -1.09433594 8.02382812 -1.09765625 7.0078125 C-1.10289307 6.09660645 -1.10812988 5.18540039 -1.11352539 4.24658203 C-1 2 -1 2 0 0 Z " fill="#F3F3F0" transform="translate(1127,1265)"/>
<path d="M0 0 C4.29 0 8.58 0 13 0 C13 0.33 13 0.66 13 1 C10.03 1 7.06 1 4 1 C4 3.64 4 6.28 4 9 C3.67 9 3.34 9 3 9 C2.67 7.35 2.34 5.7 2 4 C1.67 9.94 1.34 15.88 1 22 C0.67 22 0.34 22 0 22 C0 14.74 0 7.48 0 0 Z " fill="#D6D7D3" transform="translate(1555,1267)"/>
<path d="M0 0 C0.33 0 0.66 0 1 0 C1 8.25 1 16.5 1 25 C-0.65 25 -2.3 25 -4 25 C-3.01 24.67 -2.02 24.34 -1 24 C-1.20625 22.824375 -1.4125 21.64875 -1.625 20.4375 C-2.42880462 13.56662216 -1.08052288 6.77782536 0 0 Z " fill="#131614" transform="translate(824,1192)"/>
<path d="M0 0 C4.29 0 8.58 0 13 0 C13 8.25 13 16.5 13 25 C12.34 23.68 11.68 22.36 11 21 C10.34 20.67 9.68 20.34 9 20 C8.67 20.66 8.34 21.32 8 22 C8.375 20.0625 8.375 20.0625 9 18 C9.66 17.67 10.32 17.34 11 17 C11.31241455 14.28553021 11.51336592 11.66090639 11.625 8.9375 C11.68300781 7.79958008 11.68300781 7.79958008 11.7421875 6.63867188 C11.83673562 4.75952805 11.91946756 2.87979664 12 1 C8.04 1 4.08 1 0 1 C0 0.67 0 0.34 0 0 Z " fill="#E3E4E0" transform="translate(1967,1168)"/>
<path d="M0 0 C1.22589844 0.01353516 1.22589844 0.01353516 2.4765625 0.02734375 C3.41628906 0.04474609 3.41628906 0.04474609 4.375 0.0625 C4.375 0.7225 4.375 1.3825 4.375 2.0625 C1.735 2.3925 -0.905 2.7225 -3.625 3.0625 C-3.955 9.0025 -4.285 14.9425 -4.625 21.0625 C-4.955 21.0625 -5.285 21.0625 -5.625 21.0625 C-5.79321105 18.4792588 -5.95962517 15.89592301 -6.125 13.3125 C-6.17269531 12.58289063 -6.22039062 11.85328125 -6.26953125 11.1015625 C-6.48316897 7.74439836 -6.625 4.42813724 -6.625 1.0625 C-4.21954362 -0.14022819 -2.67503047 -0.03821472 0 0 Z " fill="#0B0F0B" transform="translate(1261.625,341.9375)"/>
<path d="M0 0 C0.99 0 1.98 0 3 0 C3 4.95 3 9.9 3 15 C2.01 15.33 1.02 15.66 0 16 C0 10.72 0 5.44 0 0 Z " fill="#F6F5F6" transform="translate(1360,570)"/>
<path d="M0 0 C0.33 0 0.66 0 1 0 C1 8.58 1 17.16 1 26 C0.01 25.67 -0.98 25.34 -2 25 C-2.33 25.66 -2.66 26.32 -3 27 C-3 23.7 -3 20.4 -3 17 C-2.34 17.99 -1.68 18.98 -1 20 C-0.67 13.4 -0.34 6.8 0 0 Z " fill="#F5F5F2" transform="translate(1131,430)"/>
<path d="M0 0 C0.33 0 0.66 0 1 0 C1.33 7.26 1.66 14.52 2 22 C1.01 22.33 0.02 22.66 -1 23 C-1.02911321 19.9166866 -1.04683682 16.83340875 -1.0625 13.75 C-1.07087891 12.87730469 -1.07925781 12.00460937 -1.08789062 11.10546875 C-1.09111328 10.26113281 -1.09433594 9.41679688 -1.09765625 8.546875 C-1.10551147 7.38430176 -1.10551147 7.38430176 -1.11352539 6.19824219 C-1.00036998 4.00716402 -0.60552448 2.10362139 0 0 Z " fill="#F1F2EF" transform="translate(2039,1265)"/>
<path d="M0 0 C1.32 0 2.64 0 4 0 C4 1.32 4 2.64 4 4 C6.31 4 8.62 4 11 4 C10.01 4.33 9.02 4.66 8 5 C7.67 5.99 7.34 6.98 7 8 C5.33388095 8.042721 3.66617115 8.04063832 2 8 C1.67 7.67 1.34 7.34 1 7 C0.67 7 0.34 7 0 7 C0 4.69 0 2.38 0 0 Z " fill="#F2F2EF" transform="translate(1128,692)"/>
<path d="M0 0 C0.66 0 1.32 0 2 0 C2 3.63 2 7.26 2 11 C0.02 11 -1.96 11 -4 11 C-3.34 10.34 -2.68 9.68 -2 9 C-2.185625 8.401875 -2.37125 7.80375 -2.5625 7.1875 C-3 5 -3 5 -1.6875 2.25 C-1.130625 1.5075 -0.57375 0.765 0 0 Z " fill="#F7F8F4" transform="translate(1869,1133)"/>
<path d="M0 0 C4.51533049 2.32216997 7.01055501 4.98560245 10 9 C10 9.66 10 10.32 10 11 C9.01 11 8.02 11 7 11 C7 10.34 7 9.68 7 9 C5.35 9 3.7 9 2 9 C1.855625 8.2575 1.71125 7.515 1.5625 6.75 C1.09812508 4.47972261 0.58136431 2.24240521 0 0 Z " fill="#2A2A27" transform="translate(1668,252)"/>
<path d="M0 0 C0.33 0 0.66 0 1 0 C1 7.26 1 14.52 1 22 C0.67 22 0.34 22 0 22 C-0.33 20.02 -0.66 18.04 -1 16 C-1.33 16 -1.66 16 -2 16 C-2.20674944 10.21101581 -1.59162079 5.57067277 0 0 Z " fill="#F3F4F2" transform="translate(1222,1246)"/>
<path d="M0 0 C0.33 0 0.66 0 1 0 C1 4.95 1 9.9 1 15 C0.67 15 0.34 15 0 15 C0 12.69 0 10.38 0 8 C-0.66 8 -1.32 8 -2 8 C-2 9.65 -2 11.3 -2 13 C-2.66 12.67 -3.32 12.34 -4 12 C-4 9.03 -4 6.06 -4 3 C-3.01 3 -2.02 3 -1 3 C-0.67 2.01 -0.34 1.02 0 0 Z " fill="#F5F4F3" transform="translate(1131,401)"/>
<path d="M0 0 C0.33 0 0.66 0 1 0 C1 5.61 1 11.22 1 17 C1.66 17.33 2.32 17.66 3 18 C1.35 18 -0.3 18 -2 18 C-2 15.03 -2 12.06 -2 9 C-1.67 9 -1.34 9 -1 9 C-0.67 6.03 -0.34 3.06 0 0 Z " fill="#090B0A" transform="translate(1466,1248)"/>
<path d="M0 0 C0.33 0 0.66 0 1 0 C1.19448477 2.12437212 1.38038289 4.24953191 1.5625 6.375 C1.66691406 7.55835938 1.77132813 8.74171875 1.87890625 9.9609375 C2 13 2 13 1 15 C0.34 15 -0.32 15 -1 15 C-1.02685412 12.68756208 -1.04632841 10.3750373 -1.0625 8.0625 C-1.07410156 6.77472656 -1.08570313 5.48695312 -1.09765625 4.16015625 C-1 1 -1 1 0 0 Z " fill="#F6F8F3" transform="translate(1557,1270)"/>
<path d="M0 0 C2.31 0 4.62 0 7 0 C7 0.99 7 1.98 7 3 C6.34 3 5.68 3 5 3 C4.67 5.97 4.34 8.94 4 12 C3.01 10.68 2.02 9.36 1 8 C1.66 7.67 2.32 7.34 3 7 C2.01 4.69 1.02 2.38 0 0 Z " fill="#EFF1EB" transform="translate(1470,1268)"/>
<path d="M0 0 C0.99 0.33 1.98 0.66 3 1 C3 5 3 9 3 13 C2.01 13 1.02 13 0 13 C0 8.71 0 4.42 0 0 Z " fill="#F0F1EC" transform="translate(1165,677)"/>
<path d="M0 0 C3.32310483 1.16757737 5.83361132 2.14948857 8 5 C8 5.99 8 6.98 8 8 C6.68 8 5.36 8 4 8 C3.34 7.01 2.68 6.02 2 5 C1.01 4.34 0.02 3.68 -1 3 C-0.67 2.01 -0.34 1.02 0 0 Z " fill="#EDEEEA" transform="translate(1170,569)"/>
<path d="M0 0 C0.66 0 1.32 0 2 0 C2 0.66 2 1.32 2 2 C2.66 1.34 3.32 0.68 4 0 C4.99 0 5.98 0 7 0 C7 0.66 7 1.32 7 2 C7.66 2 8.32 2 9 2 C9 1.34 9 0.68 9 0 C9.66 0.33 10.32 0.66 11 1 C11 1.66 11 2.32 11 3 C3.41 3 -4.18 3 -12 3 C-12 2.67 -12 2.34 -12 2 C-11.21753906 1.93941406 -10.43507813 1.87882813 -9.62890625 1.81640625 C-8.61699219 1.73261719 -7.60507813 1.64882812 -6.5625 1.5625 C-5.55316406 1.48128906 -4.54382812 1.40007812 -3.50390625 1.31640625 C-1.06359221 1.26788532 -1.06359221 1.26788532 0 0 Z " fill="#F3F2F2" transform="translate(1630,243)"/>
<path d="M0 0 C0.66 0.99 1.32 1.98 2 3 C1.01 4.485 1.01 4.485 0 6 C0 5.34 0 4.68 0 4 C-0.66 4 -1.32 4 -2 4 C-2 4.66 -2 5.32 -2 6 C-3.65 6.33 -5.3 6.66 -7 7 C-7.33 5.68 -7.66 4.36 -8 3 C-5.36 2.01 -2.72 1.02 0 0 Z " fill="#EAEAE7" transform="translate(1664,1028)"/>
<path d="M0 0 C2 3.75 2 3.75 2 6 C1.67 6.99 1.34 7.98 1 9 C-4.875 5.25 -4.875 5.25 -6 3 C-4 2 -2 1 0 0 Z " fill="#1C1F1B" transform="translate(1150,1019)"/>
<path d="M0 0 C0.45375 0.495 0.9075 0.99 1.375 1.5 C2.87635519 3.22609337 2.87635519 3.22609337 5 3 C5.99 4.485 5.99 4.485 7 6 C7.99 6.66 8.98 7.32 10 8 C6.7 8 3.4 8 0 8 C0 5.36 0 2.72 0 0 Z " fill="#0E0E0C" transform="translate(1540,1158)"/>
<path d="M0 0 C0.66 0.33 1.32 0.66 2 1 C3.37634409 7.99641577 3.37634409 7.99641577 2.0625 11.5 C1.711875 11.995 1.36125 12.49 1 13 C0.01 12.34 -0.98 11.68 -2 11 C-1.34 7.37 -0.68 3.74 0 0 Z " fill="#F2F1EE" transform="translate(1176,693)"/>
<path d="M0 0 C0.33 0 0.66 0 1 0 C1.144375 1.216875 1.28875 2.43375 1.4375 3.6875 C1.72432713 6.02309235 2.0574645 8.26178274 2.5625 10.5625 C3.13071563 13.7282728 3.0629137 16.7914013 3 20 C0.32266002 17.32968716 -0.00280229 15.96278559 -0.29296875 12.109375 C-0.27314945 10.65595991 -0.23754845 9.20268833 -0.1875 7.75 C-0.17396484 7.00492188 -0.16042969 6.25984375 -0.14648438 5.4921875 C-0.11127204 3.66114584 -0.05746851 1.83047831 0 0 Z " fill="#0B0D0B" transform="translate(1652,672)"/>
<path d="M0 0 C3.3 0 6.6 0 10 0 C10 2.64 10 5.28 10 8 C9.34 7.01 8.68 6.02 8 5 C7.01 4.67 6.02 4.34 5 4 C4.67 3.34 4.34 2.68 4 2 C2.68 1.34 1.36 0.68 0 0 Z " fill="#F1F2EF" transform="translate(1290,1166)"/>
<path d="M0 0 C0.99 0.33 1.98 0.66 3 1 C3.14285714 8.42857143 3.14285714 8.42857143 2 12 C1.34 12 0.68 12 0 12 C0 8.04 0 4.08 0 0 Z " fill="#0A0C09" transform="translate(1669,1175)"/>
<path d="M0 0 C1.125 1.6875 1.125 1.6875 2 4 C1.125 6.75 1.125 6.75 0 9 C-1.32 9 -2.64 9 -4 9 C-3.46930939 5.17902761 -2.50298434 2.93828597 0 0 Z " fill="#E1E3DF" transform="translate(1641,571)"/>
<path d="M0 0 C1.32 0.99 2.64 1.98 4 3 C4 3.66 4 4.32 4 5 C3.01 5.495 3.01 5.495 2 6 C2.02320313 6.62648438 2.04640625 7.25296875 2.0703125 7.8984375 C2.08835937 8.71570313 2.10640625 9.53296875 2.125 10.375 C2.14820313 11.18710937 2.17140625 11.99921875 2.1953125 12.8359375 C2 15 2 15 0 17 C0 11.39 0 5.78 0 0 Z " fill="#F8F6F3" transform="translate(1258,383)"/>
<path d="M0 0 C0.99 0 1.98 0 3 0 C2.67 3.96 2.34 7.92 2 12 C1.34 12 0.68 12 0 12 C0 8.04 0 4.08 0 0 Z " fill="#0B0D0A" transform="translate(1669,1144)"/>
<path d="M0 0 C0.66 0.33 1.32 0.66 2 1 C2.25 8.625 2.25 8.625 0 12 C-1.16063604 7.74433453 -0.76173392 4.3164922 0 0 Z " fill="#F7F6F5" transform="translate(1361,904)"/>
<path d="M0 0 C1.32 0.33 2.64 0.66 4 1 C4.66 1 5.32 1 6 1 C6 3.31 6 5.62 6 8 C5.01 8.33 4.02 8.66 3 9 C2.01 6.03 1.02 3.06 0 0 Z " fill="#E5E5E3" transform="translate(1680,266)"/>
<path d="M0 0 C0 1.65 0 3.3 0 5 C-1.27208622 4.37755401 -2.54261882 3.75193233 -3.8125 3.125 C-4.52019531 2.77695313 -5.22789063 2.42890625 -5.95703125 2.0703125 C-8 1 -8 1 -11 -1 C-6.99799622 -2.60080151 -3.95443764 -1.29279692 0 0 Z " fill="#DDDDDA" transform="translate(1670,248)"/>
<path d="M0 0 C3.465 1.98 3.465 1.98 7 4 C6.01 4.99 5.02 5.98 4 7 C1.525 6.01 1.525 6.01 -1 5 C-0.67 3.35 -0.34 1.7 0 0 Z " fill="#0E0E0D" transform="translate(1641,708)"/>
<path d="M0 0 C0.66 0.66 1.32 1.32 2 2 C1.9765625 4.3828125 1.9765625 4.3828125 1.625 7.125 C1.51414062 8.03507813 1.40328125 8.94515625 1.2890625 9.8828125 C1.19367188 10.58148437 1.09828125 11.28015625 1 12 C0.01 12 -0.98 12 -2 12 C-1.814375 11.38125 -1.62875 10.7625 -1.4375 10.125 C-0.76313824 7.95839822 -0.76313824 7.95839822 -2 6 C-1.39421747 3.98072489 -0.73080266 1.97746603 0 0 Z " fill="#F4F4F1" transform="translate(1506,643)"/>
<path d="M0 0 C0.33 0 0.66 0 1 0 C1 3.63 1 7.26 1 11 C0.01 11 -0.98 11 -2 11 C-2.33 9.35 -2.66 7.7 -3 6 C-2.34 6 -1.68 6 -1 6 C-0.67 4.02 -0.34 2.04 0 0 Z " fill="#F9F8F5" transform="translate(1650,606)"/>
<path d="M0 0 C0.66 0 1.32 0 2 0 C2 2.64 2 5.28 2 8 C1.34 8 0.68 8 0 8 C-0.33 8.99 -0.66 9.98 -1 11 C-1.0270043 9.54176788 -1.04639787 8.08339325 -1.0625 6.625 C-1.07410156 5.81289062 -1.08570313 5.00078125 -1.09765625 4.1640625 C-1 2 -1 2 0 0 Z " fill="#F6F7F4" transform="translate(1475,1271)"/>
<path d="M0 0 C1.32 0 2.64 0 4 0 C3.67 0.99 3.34 1.98 3 3 C2.34 3 1.68 3 1 3 C0.67 4.65 0.34 6.3 0 8 C-0.66 8 -1.32 8 -2 8 C-2.125 5.125 -2.125 5.125 -2 2 C-1.34 1.34 -0.68 0.68 0 0 Z " fill="#F8F8F5" transform="translate(1940,1206)"/>
<path d="M0 0 C3.3 0.33 6.6 0.66 10 1 C6.79619983 3.13586678 5.98060033 3.23132175 2.3125 3.125 C1.10013672 3.09792969 1.10013672 3.09792969 -0.13671875 3.0703125 C-1.05904297 3.03550781 -1.05904297 3.03550781 -2 3 C-1.34 2.01 -0.68 1.02 0 0 Z " fill="#F4F4F3" transform="translate(1660,244)"/>
<path d="M0 0 C0.33 0.99 0.66 1.98 1 3 C1.66 3 2.32 3 3 3 C2.88637738 4.4800841 2.75877092 5.95910074 2.625 7.4375 C2.52058594 8.67306641 2.52058594 8.67306641 2.4140625 9.93359375 C2.27742188 10.61550781 2.14078125 11.29742188 2 12 C1.01 12.495 1.01 12.495 0 13 C0 8.71 0 4.42 0 0 Z " fill="#0F1010" transform="translate(1540,1239)"/>
<path d="M0 0 C0.66 0.66 1.32 1.32 2 2 C1.67 2.99 1.34 3.98 1 5 C2.32 4.67 3.64 4.34 5 4 C4.34 5.65 3.68 7.3 3 9 C2.01 9 1.02 9 0 9 C0 6.03 0 3.06 0 0 Z " fill="#F7F7F4" transform="translate(1700,1142)"/>
<path d="M0 0 C3.96 0 7.92 0 12 0 C12 2.31 12 4.62 12 7 C11.01 6.67 10.02 6.34 9 6 C9.66 4.35 10.32 2.7 11 1 C7.37 1 3.74 1 0 1 C0 0.67 0 0.34 0 0 Z " fill="#141512" transform="translate(1686,1140)"/>
<path d="M0 0 C2 3 2 3 1.625 5.1875 C1.41875 5.785625 1.2125 6.38375 1 7 C0.38125 7.12375 -0.2375 7.2475 -0.875 7.375 C-3.19120832 7.87197356 -3.19120832 7.87197356 -5 10 C-5.66 9.34 -6.32 8.68 -7 8 C-5.47005208 6.79557292 -3.94010417 5.59114583 -2.41015625 4.38671875 C-0.72844923 2.94316909 -0.72844923 2.94316909 0 0 Z " fill="#2B2C2B" transform="translate(1178,702)"/>
<path d="M0 0 C2.46278801 2.46278801 2.99771255 4.70676982 4 8 C3.01 8 2.02 8 1 8 C0.01 5.69 -0.98 3.38 -2 1 C-1.34 0.67 -0.68 0.34 0 0 Z " fill="#E5E5E1" transform="translate(1639,699)"/>
<path d="M0 0 C0.99 0.33 1.98 0.66 3 1 C3 4.63 3 8.26 3 12 C0.71082423 7.42164847 0 5.08462738 0 0 Z " fill="#F9F8F4" transform="translate(1176,686)"/>
<path d="M0 0 C3.24745514 4.13312472 5 6.63932628 5 12 C4.34 12 3.68 12 3 12 C3 10.68 3 9.36 3 8 C2.34 8 1.68 8 1 8 C0.67 5.36 0.34 2.72 0 0 Z " fill="#2B2C28" transform="translate(1678,263)"/>
<path d="M0 0 C0.99 0 1.98 0 3 0 C4.6875 2 4.6875 2 6 4 C4.02 4.99 2.04 5.98 0 7 C-0.33 5.68 -0.66 4.36 -1 3 C-0.34 2.67 0.32 2.34 1 2 C0.67 1.34 0.34 0.68 0 0 Z " fill="#EAEAE9" transform="translate(1149,244)"/>
<path d="M0 0 C2 2 2 2 2.1953125 3.9453125 C2.13020833 5.96354167 2.06510417 7.98177083 2 10 C1.01 10 0.02 10 -1 10 C-1.125 3.375 -1.125 3.375 0 0 Z " fill="#F5F6F3" transform="translate(1127,1182)"/>
<path d="M0 0 C0.33 0 0.66 0 1 0 C2.20568053 4.67201205 2.09382426 9.21496292 2 14 C0.01163916 11.01745874 -0.34336635 9.86191192 -0.6875 6.4375 C-0.77386719 5.65246094 -0.86023437 4.86742187 -0.94921875 4.05859375 C-1 2 -1 2 0 0 Z " fill="#F7F7F5" transform="translate(1361,765)"/>
<path d="M0 0 C0.66 0.33 1.32 0.66 2 1 C-0.25 3.5625 -0.25 3.5625 -3 6 C-5.3125 5.8125 -5.3125 5.8125 -7 5 C-4.88437775 2.67281553 -2.94982021 1.14186589 0 0 Z " fill="#252625" transform="translate(1154,248)"/>
<path d="M0 0 C0.66 0.33 1.32 0.66 2 1 C2 4.63 2 8.26 2 12 C1.01 12 0.02 12 -1 12 C-1 10.68 -1 9.36 -1 8 C-0.34 8 0.32 8 1 8 C0.67 5.36 0.34 2.72 0 0 Z " fill="#0A0B07" transform="translate(1865,1276)"/>
<path d="M0 0 C2.97 0 5.94 0 9 0 C4.5 4 4.5 4 0 4 C0 2.68 0 1.36 0 0 Z " fill="#222421" transform="translate(1839,1240)"/>
<path d="M0 0 C1.125 3.75 1.125 3.75 0 6 C0.39938767 8.09821215 0.39938767 8.09821215 1 10 C0.01 10 -0.98 10 -2 10 C-2 7.03 -2 4.06 -2 1 C-1.34 0.67 -0.68 0.34 0 0 Z " fill="#F7F7F4" transform="translate(1940,1214)"/>
<path d="M0 0 C0.99 0 1.98 0 3 0 C3.75 1.75 3.75 1.75 4 4 C2.0625 6.25 2.0625 6.25 0 8 C0 5.36 0 2.72 0 0 Z " fill="#F7F8F4" transform="translate(828,1116)"/>
<path d="M0 0 C0.33 0 0.66 0 1 0 C1 2.31 1 4.62 1 7 C0.34 7 -0.32 7 -1 7 C-1 7.66 -1 8.32 -1 9 C-1.66 9 -2.32 9 -3 9 C-3 7.02 -3 5.04 -3 3 C-2.34 3 -1.68 3 -1 3 C-0.67 2.01 -0.34 1.02 0 0 Z " fill="#F8F9F5" transform="translate(1131,792)"/>
<path d="M0 0 C1.35015859 4.05047576 0.62084998 6.7920168 0 11 C-1.32 9.35 -2.64 7.7 -4 6 C-3.34 4.68 -2.68 3.36 -2 2 C-1.34 2 -0.68 2 0 2 C0 1.34 0 0.68 0 0 Z " fill="#0E100E" transform="translate(1636,578)"/>
<path d="M0 0 C0.66 0 1.32 0 2 0 C2 3.63 2 7.26 2 11 C0.02 11 -1.96 11 -4 11 C-4 10.67 -4 10.34 -4 10 C-2.35 10 -0.7 10 1 10 C1 7.69 1 5.38 1 3 C0.34 3 -0.32 3 -1 3 C-0.67 2.01 -0.34 1.02 0 0 Z " fill="#C9CBC7" transform="translate(1869,1133)"/>
<path d="M0 0 C1.98 0 3.96 0 6 0 C4.6875 2.5 4.6875 2.5 3 5 C2.01 5 1.02 5 0 5 C0 3.35 0 1.7 0 0 Z " fill="#1D1F1C" transform="translate(1873,1117)"/>
<path d="M0 0 C2.97 0 5.94 0 9 0 C9 0.66 9 1.32 9 2 C5.78548731 3.60725635 2.56387464 3.05748185 -1 3 C-0.67 2.01 -0.34 1.02 0 0 Z " fill="#F7F8F5" transform="translate(774,1112)"/>
<path d="M0 0 C0 0.33 0 0.66 0 1 C-4.29 1 -8.58 1 -13 1 C-7.56547172 -1.71726414 -5.58922351 -2.63935555 0 0 Z " fill="#141414" transform="translate(1258,1289)"/>
<path d="M0 0 C0.125 2.375 0.125 2.375 0 5 C-1.33333333 6.33333333 -2.66666667 7.66666667 -4 9 C-4.368 3.48 -4.368 3.48 -2.5625 1.125 C-1 0 -1 0 0 0 Z " fill="#F7F7F3" transform="translate(1132,554)"/>
<path d="M0 0 C0.66 0 1.32 0 2 0 C2 2.64 2 5.28 2 8 C0.68 8.33 -0.64 8.66 -2 9 C-1.67 7.68 -1.34 6.36 -1 5 C-0.34 5 0.32 5 1 5 C0.67 3.35 0.34 1.7 0 0 Z " fill="#F8F7F6" transform="translate(1130,463)"/>
<path d="M0 0 C0.66 0 1.32 0 2 0 C3.57035335 2.49409061 4.0274945 3.70443416 3.75 6.6875 C3.5025 7.450625 3.255 8.21375 3 9 C2.01 9.495 2.01 9.495 1 10 C1.020625 8.906875 1.04125 7.81375 1.0625 6.6875 C1.18544452 3.05615809 1.18544452 3.05615809 0 0 Z " fill="#F3F3F0" transform="translate(1647,623)"/>
<path d="M0 0 C0 2.31 0 4.62 0 7 C-0.99 7 -1.98 7 -3 7 C-3 5.02 -3 3.04 -3 1 C-1 0 -1 0 0 0 Z " fill="#F7F8F3" transform="translate(776,1266)"/>
<path d="M0 0 C2.475 0.99 2.475 0.99 5 2 C4.67 3.65 4.34 5.3 4 7 C3.34 7 2.68 7 2 7 C2 6.34 2 5.68 2 5 C1.34 4.67 0.68 4.34 0 4 C0 2.68 0 1.36 0 0 Z " fill="#F4F6F0" transform="translate(1700,1186)"/>
<path d="M0 0 C1.2077558 3.62326739 0.54311128 4.64146369 -1 8 C-1.66 8 -2.32 8 -3 8 C-3 5.69 -3 3.38 -3 1 C-2.01 0.67 -1.02 0.34 0 0 Z " fill="#F9F8F5" transform="translate(1131,762)"/>
<path d="M0 0 C0.33 0 0.66 0 1 0 C1 2.97 1 5.94 1 9 C0.01 8.01 -0.98 7.02 -2 6 C-1.57894737 1.57894737 -1.57894737 1.57894737 0 0 Z " fill="#F5F6F2" transform="translate(1650,637)"/>
<path d="M0 0 C0.33 0.66 0.66 1.32 1 2 C1.66 2 2.32 2 3 2 C3 3.98 3 5.96 3 8 C2.01 8 1.02 8 0 8 C0 5.36 0 2.72 0 0 Z " fill="#F7F7F7" transform="translate(1360,480)"/>
<path d="M0 0 C0.66 0 1.32 0 2 0 C2 1.98 2 3.96 2 6 C1.01 6 0.02 6 -1 6 C-1.042721 4.33388095 -1.04063832 2.66617115 -1 1 C-0.67 0.67 -0.34 0.34 0 0 Z " fill="#F3F3EF" transform="translate(1255,1258)"/>
<path d="M0 0 C0.66 0.33 1.32 0.66 2 1 C1.67 5.29 1.34 9.58 1 14 C0.67 14 0.34 14 0 14 C-0.19393875 11.85473901 -0.37998676 9.70876323 -0.5625 7.5625 C-0.71912109 5.77005859 -0.71912109 5.77005859 -0.87890625 3.94140625 C-0.91886719 2.97074219 -0.95882813 2.00007813 -1 1 C-0.67 0.67 -0.34 0.34 0 0 Z " fill="#191A15" transform="translate(1917,1240)"/>
<path d="M0 0 C0.33 1.32 0.66 2.64 1 4 C-2.3 3.34 -5.6 2.68 -9 2 C-5.23312136 0.11656068 -3.97041037 -0.22057835 0 0 Z " fill="#F3F4F0" transform="translate(1685,580)"/>
<path d="M0 0 C3.1875 0.3125 3.1875 0.3125 6 1 C6 1.66 6 2.32 6 3 C3.03 3 0.06 3 -3 3 C-2.01 2.01 -1.02 1.02 0 0 Z " fill="#F4F5F1" transform="translate(1137,580)"/>
</svg>
